<svg id="Capa_1" data-name="Capa 1" xmlns="http://www.w3.org/2000/svg" viewBox="0 0 500 500"><defs><style>.cls-1{fill:#1216f2;}.cls-2{fill:#fff;fill-rule:evenodd;}</style></defs><title>Copia de Isotype_blue</title><rect class="cls-1" width="500" height="500"/><path class="cls-2" d="M381.77,83.81c-41.12,20.49-21.63,96.06-21.93,120.31A56.1,56.1,0,0,1,357.73,219c-1.77,6.88-7.05,14.41-17.14,23.83l-240,204.79,115-181.53,46.72-25.48L90.15,278.22s109.87-77,156.37-106.05c13.28-8.3,20-6.69,32-5.37l21.92-35.3-36.28,3,75.84-47a35.69,35.69,0,0,1,8.34-4.26c10.93-3.74,20.13-1.76,32.57.44l.89.16"/></svg>